{"title":"Mafia 2011 BRRip 720p x264 AAC - PRiSTiNE [P2PDL]","uid":8224537,"size":551956850,"categoryP":"video","categoryS":"hd___movies","magnet":"?xt=urn:btih:b071f2d2b0f2f7b970c2ad920632285ef36e1ce2&amp;dn=Mafia+2011+BRRip+720p+x264+AAC+-+PRiSTiNE+%5BP2PDL%5D&amp;tr=udp%3A%2F%2Ftracker.openbittorrent.com%3A80&amp;tr=udp%3A%2F%2Fopen.demonii.com%3A1337&amp;tr=udp%3A%2F%2Ftracker.coppersurfer.tk%3A6969&amp;tr=udp%3A%2F%2Fexodus.desync.com%3A6969","seeders":0,"leechers":1,"uploader":"Vitamin_X","files":-1,"time":1362563139,"description":"_________________________  Visit us at _________________________\n  &lt;a href=&quot;\nhttp://p2pdl.com&quot; rel=&quot;nofollow&quot; target=&quot;_NEW&quot;&gt;\nhttp://p2pdl.com&lt;/a&gt;  ____________________________ &lt;a href=&quot; http://p2pdl.com&quot; rel=&quot;nofollow&quot; target=&quot;_NEW&quot;&gt; http://p2pdl.com&lt;/a&gt;\n\n\nMafia 2011 BRRip 720p x264 AAC - PRiSTiNE\n\nGenre: Crime\nPlot: (Not Available)\nDirector: Ryan Combs\nStars: Ving Rhames, Pam Grier, Sean Derry\nRated: Rated R for violence, pervasive language and some sexuality\n\nInfo: &lt;a href=&quot;\nhttp://www.imdb.com/title/tt1386932/&quot; rel=&quot;nofollow&quot; target=&quot;_NEW&quot;&gt;\nhttp://www.imdb.com/title/tt1386932/&lt;/a&gt;\n\nGeneral\nComplete name                  : Mafia 2011 BRRip 720p x264 AAC - PRiSTiNE.mp4\nFormat                         : MPEG-4\nFormat profile                 : Base Media\nCodec ID                       : isom\nFile size                      : 520 MiB\nDuration                       : 1h 21mn\nOverall bit rate mode          : Variable\nOverall bit rate               : 887 Kbps\n\nSource                         : NOSCREENS (Thanks)\n\nVideo\nFormat                         : AVC\nFormat/Info                    : Advanced Video Codec\nFormat profile                 : High &lt;a class=&quot;__cf_email__&quot; href=&quot;/cdn-cgi/l/email-protection&quot; data-cfemail=&quot;ae9f9eeee29a809f&quot;&gt;[email&amp;#160;protected]&lt;/a&gt;&lt;script cf-hash='f9e31' type=&quot;text/javascript&quot;&gt;\n/* &lt;![CDATA[ */!function(){try{var t=&quot;currentScript&quot;in document?document.currentScript:function(){for(var t=document.getElementsByTagName(&quot;script&quot;),e=t.length;e--;)if(t[e].getAttribute(&quot;cf-hash&quot;))return t[e]}();if(t&amp;&amp;t.previousSibling){var e,r,n,i,c=t.previousSibling,a=c.getAttribute(&quot;data-cfemail&quot;);if(a){for(e=&quot;&quot;,r=parseInt(a.substr(0,2),16),n=2;a.length-n;n+=2)i=parseInt(a.substr(n,2),16)^r,e+=String.fromCharCode(i);e=document.createTextNode(e),c.parentNode.replaceChild(e,c)}}}catch(u){}}();/* ]]&gt; */&lt;/script&gt;\nBit rate                       : 803 Kbps\nWidth                          : 1 280 pixels\nHeight                         : 720 pixels\nDisplay aspect ratio           : 16:9\nFrame rate mode                : Constant\nFrame rate                     : 23.976 fps\nColor space                    : YUV\nChroma subsampling             : 4:2:0\nBit depth                      : 10 bits\nScan type                      : Progressive\nBits/(Pixel*Frame)             : 0.036\nStream size                    : 469 MiB (90%)\nWriting library                : x264 core 129 r2245 bc13772\n\nAudio\nFormat                         : AAC\nFormat/Info                    : Advanced Audio Codec\nDuration                       : 1h 21mn\nBit rate mode                  : Variable\nBit rate                       : 83.5 Kbps\nChannel(s)                     : 2 channels\nChannel positions              : Front: L R\nSampling rate                  : 48.0 KHz / 24.0 KHz\nStream size                    : 48.9 MiB (9%)\nLanguage                       : English\n\nSubtitle                       : No\n\nScreens: &lt;a href=&quot;\nhttp://imgr.us/images/owqndq33kdc6ayy9tpcn.jpg&quot; rel=&quot;nofollow&quot; target=&quot;_NEW&quot;&gt;\nhttp://imgr.us/images/owqndq33kdc6ayy9tpcn.jpg&lt;/a&gt; &lt;a href=&quot;\nhttp://imgr.us/images/63u6aglrihgq8mqux81e.jpg&quot; rel=&quot;nofollow&quot; target=&quot;_NEW&quot;&gt;\nhttp://imgr.us/images/63u6aglrihgq8mqux81e.jpg&lt;/a&gt; &lt;a href=&quot;\nhttp://imgr.us/images/3kct19px7yp3aje6xp30.jpg&quot; rel=&quot;nofollow&quot; target=&quot;_NEW&quot;&gt;\nhttp://imgr.us/images/3kct19px7yp3aje6xp30.jpg&lt;/a&gt; &lt;a href=&quot;\nhttp://imgr.us/images/tmbws1gf73vufkkx2qy3.jpg&quot; rel=&quot;nofollow&quot; target=&quot;_NEW&quot;&gt;\nhttp://imgr.us/images/tmbws1gf73vufkkx2qy3.jpg&lt;/a&gt;\n\nThumbs: &lt;a href=&quot;\nhttp://imgr.us/images/cbubmq5fly1nmgfzu79s.jpg&quot; rel=&quot;nofollow&quot; target=&quot;_NEW&quot;&gt;\nhttp://imgr.us/images/cbubmq5fly1nmgfzu79s.jpg&lt;/a&gt;\n----------------------------------------------------------------------------------------------------\nEncoded using revolutionary 10bit encoding, which enables us to provide you more crispier \nand sharper images at small sizes, just make sure you follow our instructions without a fault.\nRecommend to you to use latest version of VLC player. Install K-Lite Codec Pack or shark007 codecs\nin case of any kind of problem in playback (For non-VLC Media Player users). Alternatively, install\nCore AVC codecs, the fastest decoder that there is coupled with Community Center Codec Pack and play\non Windows Media Player Classic. Check sample to be sure.\nEnjoy!","torrent":{"xt":"urn:btih:b071f2d2b0f2f7b970c2ad920632285ef36e1ce2","amp;dn":"Mafia+2011+BRRip+720p+x264+AAC+-+PRiSTiNE+%5BP2PDL%5D","amp;tr":["udp%3A%2F%2Ftracker.openbittorrent.com%3A80","udp%3A%2F%2Fopen.demonii.com%3A1337","udp%3A%2F%2Ftracker.coppersurfer.tk%3A6969","udp%3A%2F%2Fexodus.desync.com%3A6969"],"infoHash":"b071f2d2b0f2f7b970c2ad920632285ef36e1ce2","infoHashBuffer":{"type":"Buffer","data":[176,113,242,210,176,242,247,185,112,194,173,146,6,50,40,94,243,110,28,226]},"announce":[],"urlList":[]}}